<svg id="Ñëîé_1" data-name="Ñëîé 1" xmlns="http://www.w3.org/2000/svg" viewBox="0 0 2041.98 3058.34"><path d="M2055.23,2919.87c-13.5-16.31-32.69-31.8-57-46-43-25.12-103.22-47.37-179.1-66.13-83.6-20.67-182.24-36.2-289.66-45.95-18.59,28.56-36.44,56-53.23,81.86,120.7,8.85,231.09,25,322.26,47.54,66.92,16.55,121,36.22,156.35,56.89,31.81,18.6,40.21,33.13,40.21,38.22s-8.4,19.62-40.21,38.21c-35.36,20.67-89.43,40.34-156.35,56.89-144.54,35.74-337.42,55.42-543.09,55.42s-398.54-19.68-543.09-55.42c-66.92-16.55-121-36.22-156.35-56.89-31.8-18.59-40.21-33.13-40.21-38.21s8.41-19.62,40.21-38.22c35.36-20.67,89.43-40.34,156.35-56.89,90.8-22.45,200.68-38.56,320.81-47.44l-53.68-81.79c-106.69,9.76-204.65,25.23-287.76,45.78-75.87,18.76-136.13,41-179.1,66.13-24.34,14.22-43.53,29.71-57,46-17.1,20.66-25.77,43-25.77,66.41s8.67,45.74,25.77,66.4c13.5,16.32,32.69,31.8,57,46,43,25.12,103.23,47.37,179.1,66.13,151.1,37.36,351.3,57.93,563.72,57.93s412.63-20.57,563.72-57.93c75.88-18.76,136.13-41,179.1-66.13,24.34-14.23,43.53-29.71,57-46,17.1-20.66,25.77-43,25.77-66.4S2072.33,2940.53,2055.23,2919.87Z" transform="translate(-234.85 -164.43)"/><path d="M1255.71,1833.08c-369,0-668.13-299.13-668.13-668.13s299.13-668.13,668.13-668.13h.13V164.43h-.27A1020.08,1020.08,0,0,0,658.81,357,1036.82,1036.82,0,0,0,380,657.46a1026.43,1026.43,0,0,0-89.75,187C201,1092.17,224.75,1353.15,324.8,1590.3q19.89,47.12,43.69,92.9c106,204,251.31,384.63,381.11,573.4q162.71,236.61,325.4,473.24l130,189.08c3.49,5.08,50.82,72.9,50.82,72.9V1833.08Z" transform="translate(-234.85 -164.43)"/><path d="M1256,1833.08c369,0,668.13-299.13,668.13-668.13S1625,496.82,1256,496.82h-.13V164.43h.27A1020.08,1020.08,0,0,1,1852.87,357,1036.82,1036.82,0,0,1,2131.7,657.46a1026.43,1026.43,0,0,1,89.75,187c89.28,247.74,65.48,508.72-34.57,745.87q-19.89,47.12-43.69,92.9c-106,204-251.31,384.63-381.11,573.4q-162.7,236.61-325.4,473.24l-130,189.08c-3.49,5.08-50.82,72.9-50.82,72.9V1833.08Z" transform="translate(-234.85 -164.43)"  /></svg>